<?xml version="1.0" standalone="no"?><!DOCTYPE svg PUBLIC "-//W3C//DTD SVG 1.1//EN" "http://www.w3.org/Graphics/SVG/1.1/DTD/svg11.dtd"><svg t="1647683310999" class="icon" viewBox="0 0 1024 1024" version="1.1" xmlns="http://www.w3.org/2000/svg" p-id="3898" xmlns:xlink="http://www.w3.org/1999/xlink" width="200" height="200"><defs><style type="text/css"></style></defs><path d="M234 651.328c11-3.328 28 0.307 28 25.672 0 25.365-19 32-28 34.807-65.678 19.559-106 46.04-106 75.193 0 60.199 171.923 109 384 109s384-48.801 384-109c0-29.006-39.913-55.365-105-74.894C781 709 757 708 757 682s16-37 34-30.365C893.993 683.332 960 732.19 960 787c0 95.545-200.576 173-448 173S64 882.545 64 787c0-54.988 66.435-103.984 170-135.672zM512.5 821C389.606 704.75 308.991 623.416 270.657 576.999 225.893 522.795 199 453.289 199 377.5 199 204.359 339.359 64 512.5 64S826 204.359 826 377.5c0 75.844-26.933 145.398-71.756 199.619C715.909 623.49 635.328 704.784 512.5 821z m0-94c81.667-76 132.39-126.587 152.168-151.76C712.934 513.811 762 458.014 762 377.5 762 239.705 650.295 128 512.5 128 374.705 128 263 239.705 263 377.5c0 80.239 48.266 136.53 96.726 197.272C385.909 607.59 436.833 658.333 512.5 727z m-0.5-166c-101.62 0-184-82.38-184-184s82.38-184 184-184 184 82.38 184 184-82.38 184-184 184z m0-64c66.274 0 120-53.726 120-120s-53.726-120-120-120-120 53.726-120 120 53.726 120 120 120z" p-id="3899"></path></svg>