<?xml version="1.0" standalone="no"?><!DOCTYPE svg PUBLIC "-//W3C//DTD SVG 1.1//EN" "http://www.w3.org/Graphics/SVG/1.1/DTD/svg11.dtd"><svg t="1647683238847" class="icon" viewBox="0 0 1024 1024" version="1.1" xmlns="http://www.w3.org/2000/svg" p-id="3214" xmlns:xlink="http://www.w3.org/1999/xlink" width="200" height="200"><defs><style type="text/css"></style></defs><path d="M474.1 130.8c45.6 0 88.6 18.2 120.9 51.2 32.7 33.4 50.7 77.8 50.7 125.2s-18 91.8-50.7 125.2c-32.4 33-75.3 51.2-120.9 51.2s-88.6-18.2-120.9-51.2c-32.7-33.4-50.7-77.8-50.7-125.2s18-91.8 50.7-125.2c32.3-33.1 75.2-51.2 120.9-51.2m0-64c-130.2 0-235.7 107.6-235.7 240.4s105.5 240.4 235.7 240.4S709.7 440 709.7 307.2 604.2 66.8 474.1 66.8z" p-id="3215"></path><path d="M458.4 924.8h-278c-31 0-60.1-12.3-82-34.6C76 867.4 64 837.1 64.6 804.9c0.9-45.3 15-93.1 41.8-142.1 20.7-37.8 49.2-76.4 84.5-114.9 59.5-64.8 117.9-106.8 120.3-108.6l37.2 52c-3 2.2-216.9 157.7-219.9 314.8-0.3 14.9 5.2 28.8 15.5 39.3 9.7 9.9 22.6 15.4 36.3 15.4h278v64zM348.5 491.3l-18.6-26 18.6 26z" p-id="3216"></path><path d="M500.2 546.3H448c-1.6 0-2.9 1-3.4 2.6L398 701.4c-1.6 5.3-0.2 11 3.6 14.9l67.4 68.8c1 1 2.2 1.5 3.4 1.5h3.2c1.2 0 2.4-0.5 3.4-1.5l67.4-68.8c3.8-3.9 5.2-9.6 3.6-14.9l-46.6-152.6c-0.3-1.5-1.7-2.5-3.2-2.5z m-26.1 31.8s0-0.1 0 0h5.9c0.4 0 0.7 0.7 0.8 1.7L491.2 682c0.4 3.5 0 7.4-0.8 10l-15.2 46.1c-0.2 0.7-0.5 1-0.8 1h-0.6c-0.3 0-0.5-0.3-0.8-1L457.8 692c-0.9-2.6-1.2-6.4-0.8-10l10.5-102.3c0.1-1 0.4-1.7 0.8-1.7l5.8 0.1c-0.1-0.1-0.1 0 0 0zM830.1 610H594.5c-17.7 0-32-14.3-32-32s14.3-32 32-32h235.6c17.7 0 32 14.3 32 32s-14.3 32-32 32zM884 766.1H594.5c-17.7 0-32-14.3-32-32s14.3-32 32-32H884c17.7 0 32 14.3 32 32s-14.3 32-32 32zM919.1 922.3H594.5c-17.7 0-32-14.3-32-32s14.3-32 32-32h324.6c17.7 0 32 14.3 32 32s-14.3 32-32 32z" p-id="3217"></path></svg>