<?xml version="1.0" standalone="no"?><!DOCTYPE svg PUBLIC "-//W3C//DTD SVG 1.1//EN" "http://www.w3.org/Graphics/SVG/1.1/DTD/svg11.dtd"><svg t="1647683168876" class="icon" viewBox="0 0 1024 1024" version="1.1" xmlns="http://www.w3.org/2000/svg" p-id="2848" xmlns:xlink="http://www.w3.org/1999/xlink" width="200" height="200"><defs><style type="text/css"></style></defs><path d="M803.7 2H220.3C139.9 2 74.5 67.3 74.5 147.8v728.3c0 80.5 65.3 145.8 145.8 145.8h583.3c80.5 0 145.8-65.3 145.8-145.8V147.8C949.5 67.3 884.1 2 803.7 2z m72.5 874.2c0 39.8-32.7 72.5-73.3 72.5H220.3c-39.8 0-72.5-32.7-72.5-72.5V147.8c0-39.8 32.7-72.5 72.5-72.5h583.3c39.8 0 73.3 32.7 73.3 72.5v728.3h-0.7z m-510-655.9h437.5v72.5H366.2v-72.5z m-145.9 0h72.5v72.5h-72.5v-72.5z m145.9 219.2h437.5V512H366.2v-72.5z m-145.9 0h72.5V512h-72.5v-72.5z m145.9 218.3h437.5v72.5H366.2v-72.5z m-145.9 0h72.5v72.5h-72.5v-72.5z" p-id="2849"></path></svg>